<svg xmlns="http://www.w3.org/2000/svg" width="154" height="58" viewBox="0 0 154 58" fill="none"><g clip-path="url(#clip0_1_5161)"><g clip-path="url(#clip1_1_5161)"><mask id="mask0_1_5161" style="mask-type:luminance" maskUnits="userSpaceOnUse" x="0" y="1" width="55" height="56"><path d="M23.1091 12.7076C23.5185 12.7076 23.8521 13.0412 23.8521 13.4506C23.8521 13.86 23.5185 14.1936 23.1091 14.1936C22.6997 14.1936 22.3661 13.86 22.3661 13.4506C22.3661 13.0412 22.6997 12.7076 23.1091 12.7076ZM47.3546 9.91004C47.764 9.91004 48.0976 10.2436 48.0976 10.653C48.0976 11.0624 47.764 11.396 47.3546 11.396C46.9452 11.396 46.6116 11.0624 46.6116 10.653C46.6116 10.2436 46.9452 9.91004 47.3546 9.91004ZM31.4714 45.2926C31.062 45.2926 30.7285 44.959 30.7285 44.5497C30.7285 44.1403 31.062 43.8067 31.4714 43.8067C31.8808 43.8067 32.2144 44.1403 32.2144 44.5497C32.2144 44.959 31.8808 45.2926 31.4714 45.2926ZM7.22598 48.0902C6.81658 48.0902 6.483 47.7566 6.483 47.3472C6.483 46.9378 6.81658 46.6042 7.22598 46.6042C7.63538 46.6042 7.96896 46.9378 7.96896 47.3472C7.96896 47.7566 7.63538 48.0902 7.22598 48.0902ZM24.4283 48.7877C24.0113 48.9241 23.5943 49.053 23.1698 49.1667C22.5481 49.3335 22.0856 49.7505 21.843 50.3495C21.517 51.1758 20.7058 51.7596 19.7657 51.7596C19.0075 51.7596 18.3328 51.3805 17.931 50.7968C17.5595 50.2661 17.0136 49.9704 16.3692 49.9476C15.9295 49.9325 15.4898 49.9021 15.0576 49.8642C14.5042 49.8112 14.0038 49.9704 13.5792 50.3343C13.3215 50.5541 12.9803 50.6906 12.6088 50.6906C11.7824 50.6906 11.1153 50.0234 11.1153 49.1971C11.1153 48.3707 11.7824 47.7035 12.6088 47.7035C13.1395 47.7035 13.602 47.9765 13.8673 48.3934C14.2161 48.9317 14.7392 49.2501 15.376 49.3032C15.5959 49.3184 15.8082 49.3335 16.028 49.3487C16.7862 49.3866 17.4533 49.0303 17.84 48.3783C18.2267 47.7263 18.9469 47.2865 19.7657 47.2865C20.4025 47.2865 20.9711 47.5519 21.3805 47.9689C21.9037 48.5147 22.6391 48.7119 23.3669 48.4996C23.5792 48.4389 23.7839 48.3783 23.9961 48.31C24.6027 48.1129 25.05 47.6808 25.2622 47.0819C25.4669 46.5057 26.0204 46.0887 26.6724 46.0887C27.4988 46.0887 28.1659 46.7559 28.1659 47.5822C28.1659 48.4086 27.4988 49.0758 26.6724 49.0758C26.4222 49.0758 26.1948 49.0151 25.9901 48.909C25.4973 48.6512 24.9741 48.6133 24.4434 48.7877H24.4283ZM15.5201 16.9759C15.8764 16.7712 16.3313 16.8925 16.536 17.2489C16.7407 17.6052 16.6194 18.0601 16.2631 18.2648C15.9067 18.4695 15.4518 18.3482 15.2471 17.9919C15.0424 17.6355 15.1638 17.1806 15.5201 16.9759ZM35.1257 2.43473C35.482 2.23003 35.9369 2.35134 36.1416 2.70766C36.3463 3.06399 36.225 3.51888 35.8687 3.72358C35.5124 3.92828 35.0575 3.80697 34.8528 3.45065C34.6481 3.09432 34.7694 2.63943 35.1257 2.43473ZM39.0681 41.0167C38.7117 41.2214 38.2568 41.1001 38.0521 40.7438C37.8474 40.3874 37.9687 39.9326 38.3251 39.7279C38.6814 39.5232 39.1363 39.6445 39.341 40.0008C39.5457 40.3571 39.4244 40.812 39.0681 41.0167ZM19.47 55.5579C19.1137 55.7626 18.6588 55.6413 18.4541 55.285C18.2494 54.9286 18.3707 54.4738 18.727 54.2691C19.0834 54.0644 19.5382 54.1857 19.7429 54.542C19.9476 54.8983 19.8263 55.3532 19.47 55.5579ZM34.7163 47.5595C34.4282 47.8855 34.125 48.2115 33.8141 48.5223C33.3592 48.9848 33.1621 49.5686 33.2607 50.213C33.3895 51.0924 32.9802 52.0022 32.1614 52.4723C31.5018 52.8513 30.7285 52.8589 30.0916 52.5556C29.5078 52.2827 28.8862 52.2979 28.3176 52.6011C27.9309 52.8058 27.5367 53.003 27.1349 53.1849C26.6269 53.4199 26.2706 53.8066 26.0886 54.3297C25.9749 54.6557 25.7475 54.9362 25.429 55.1258C24.7164 55.5352 23.8066 55.2925 23.3896 54.5799C22.9802 53.8672 23.2228 52.9575 23.9355 52.5405C24.3904 52.2751 24.9287 52.2827 25.3684 52.5102C25.937 52.8058 26.5511 52.8134 27.1349 52.5405C27.332 52.4495 27.5291 52.3509 27.7262 52.2524C28.401 51.9112 28.8028 51.2668 28.8104 50.5087C28.8179 49.7429 29.2198 49.0075 29.9324 48.5981C30.4783 48.2797 31.1075 48.2267 31.6686 48.3859C32.3964 48.5981 33.1318 48.401 33.6549 47.8552C33.8065 47.6959 33.9582 47.5367 34.1022 47.3775C34.5343 46.8999 34.7011 46.3085 34.5798 45.6793C34.4661 45.0728 34.739 44.4359 35.3001 44.1175C36.0127 43.7081 36.9301 43.9507 37.3395 44.6634C37.7489 45.376 37.5063 46.2858 36.7936 46.7028C36.5813 46.8241 36.3463 46.8923 36.1189 46.8999C35.5578 46.9226 35.0878 47.1501 34.7163 47.5671V47.5595ZM19.8794 10.4332C20.1675 10.1072 20.4708 9.78115 20.774 9.47031C21.2289 9.00784 21.426 8.42407 21.3275 7.77965C21.1986 6.9002 21.608 5.99043 22.4268 5.52038C23.0864 5.14131 23.8597 5.13373 24.4965 5.43698C25.0803 5.70992 25.702 5.69475 26.2706 5.39149C26.6572 5.1868 27.0515 4.98968 27.4533 4.80772C27.9612 4.5727 28.3176 4.18605 28.4995 3.66293C28.6132 3.33692 28.8407 3.05641 29.1591 2.86687C29.8718 2.45748 30.7815 2.70008 31.1985 3.41274C31.6079 4.12539 31.3653 5.03517 30.6526 5.45215C30.1978 5.7175 29.6595 5.70992 29.2198 5.48247C28.6511 5.1868 28.037 5.17921 27.4533 5.45215C27.2562 5.54312 27.059 5.64168 26.8619 5.74024C26.1872 6.08141 25.7854 6.72583 25.7778 7.48397C25.7702 8.2497 25.3684 8.9851 24.6557 9.3945C24.1099 9.71292 23.4806 9.76599 22.9196 9.60678C22.1918 9.3945 21.4564 9.59161 20.9332 10.1375C20.7816 10.2967 20.63 10.4559 20.4859 10.6151C20.0538 11.0927 19.887 11.6841 20.0083 12.3134C20.122 12.9199 19.8491 13.5567 19.2881 13.8751C18.5754 14.2845 17.6656 14.0419 17.2486 13.3293C16.8392 12.6166 17.0819 11.7068 17.7945 11.2899C18.0068 11.1686 18.2418 11.1003 18.4693 11.0927C19.0303 11.07 19.5003 10.8426 19.8718 10.4256L19.8794 10.4332ZM11.0925 24.474C11.2972 24.1177 11.7521 23.9964 12.1084 24.2011C12.4648 24.4058 12.5861 24.8606 12.3814 25.217C12.1767 25.5733 11.7218 25.6946 11.3654 25.4899C11.0091 25.2852 10.8878 24.8303 11.0925 24.474ZM20.7892 2.0784C20.9939 1.72208 21.4488 1.60077 21.8051 1.80547C22.1614 2.01017 22.2827 2.46506 22.078 2.82139C21.8733 3.17771 21.4184 3.29902 21.0621 3.09432C20.7058 2.88962 20.5845 2.43473 20.7892 2.0784ZM43.4956 33.5262C43.2909 33.8826 42.836 34.0039 42.4797 33.7992C42.1234 33.5945 42.0021 33.1396 42.2068 32.7833C42.4115 32.4269 42.8664 32.3056 43.2227 32.5103C43.579 32.715 43.7003 33.1699 43.4956 33.5262ZM33.7989 55.9218C33.5942 56.2781 33.1394 56.3994 32.783 56.1947C32.4267 55.99 32.3054 55.5352 32.5101 55.1788C32.7148 54.8225 33.1697 54.7012 33.526 54.9059C33.8823 55.1106 34.0036 55.5655 33.7989 55.9218ZM43.0028 41.373C42.9194 41.8052 42.8133 42.2297 42.7071 42.6543C42.5404 43.276 42.6692 43.8901 43.0711 44.398C43.6245 45.0955 43.7231 46.0887 43.253 46.9075C42.8739 47.5671 42.2068 47.9613 41.5017 48.0219C40.8573 48.075 40.3266 48.401 39.9854 48.9469C39.7504 49.3184 39.5078 49.6823 39.2576 50.0386C38.9316 50.4935 38.8179 51.0015 38.924 51.5549C38.9847 51.8885 38.9316 52.2524 38.7496 52.5708C38.3402 53.2835 37.4229 53.5261 36.7102 53.1167C35.9976 52.7073 35.755 51.7899 36.1644 51.0773C36.4297 50.6224 36.8998 50.357 37.3926 50.3343C38.0294 50.304 38.5677 50.0083 38.9392 49.4776C39.0605 49.2956 39.1818 49.1137 39.3031 48.9317C39.7125 48.2949 39.7428 47.5367 39.3713 46.8772C38.9998 46.21 38.9771 45.376 39.3865 44.6634C39.7049 44.1175 40.2204 43.7536 40.789 43.6096C41.5244 43.4276 42.0627 42.8893 42.2447 42.1539C42.2977 41.9416 42.3432 41.7294 42.3887 41.5171C42.5252 40.8878 42.3736 40.2965 41.9566 39.8037C41.5548 39.3336 41.4714 38.6513 41.7974 38.0903C42.2068 37.3776 43.1241 37.135 43.8368 37.5444C44.5494 37.9538 44.792 38.8711 44.3826 39.5838C44.2613 39.7961 44.087 39.9705 43.8974 40.0918C43.4274 40.395 43.1317 40.8272 43.018 41.373H43.0028ZM11.5853 16.6272C11.6687 16.1951 11.7748 15.7705 11.881 15.3459C12.0478 14.7242 11.9189 14.1102 11.5171 13.6022C10.9636 12.9047 10.8651 11.9115 11.3351 11.0927C11.7142 10.4332 12.3814 10.0389 13.0864 9.97827C13.7309 9.9252 14.2616 9.5992 14.6027 9.05333C14.8377 8.68184 15.0804 8.31793 15.3305 7.9616C15.6565 7.50672 15.7703 6.99876 15.6641 6.44532C15.6035 6.11173 15.6565 5.74782 15.8385 5.4294C16.2479 4.71675 17.1653 4.47414 17.8779 4.88354C18.5906 5.29294 18.8332 6.21029 18.4238 6.92295C18.1584 7.37783 17.6884 7.64318 17.2032 7.66593C16.5663 7.69625 16.028 7.99193 15.6565 8.52263C15.5352 8.70459 15.4139 8.88654 15.2926 9.06849C14.8832 9.70534 14.8529 10.4635 15.2244 11.1231C15.5959 11.7902 15.6186 12.6242 15.2092 13.3368C14.8908 13.8827 14.3753 14.2466 13.8067 14.3907C13.0713 14.5726 12.533 15.1109 12.351 15.8463C12.298 16.0586 12.2525 16.2709 12.207 16.4831C12.0705 17.1124 12.2221 17.7038 12.6391 18.1966C13.0409 18.6666 13.1243 19.3489 12.7983 19.91C12.3889 20.6226 11.4716 20.8652 10.7589 20.4558C10.0463 20.0464 9.80367 19.1291 10.2131 18.4164C10.3344 18.2041 10.5087 18.0298 10.6983 17.9085C11.1683 17.6052 11.464 17.1731 11.5777 16.6272H11.5853ZM11.0015 33.1851C11.0015 32.7757 11.3351 32.4421 11.7445 32.4421C12.1539 32.4421 12.4875 32.7757 12.4875 33.1851C12.4875 33.5945 12.1539 33.928 11.7445 33.928C11.3351 33.928 11.0015 33.5945 11.0015 33.1851ZM8.20398 8.93961C8.20398 8.53021 8.53757 8.19663 8.94697 8.19663C9.35636 8.19663 9.68995 8.53021 9.68995 8.93961C9.68995 9.34901 9.35636 9.68259 8.94697 9.68259C8.53757 9.68259 8.20398 9.34901 8.20398 8.93961ZM43.5866 24.8227C43.5866 25.2321 43.253 25.5657 42.8436 25.5657C42.4342 25.5657 42.1006 25.2321 42.1006 24.8227C42.1006 24.4133 42.4342 24.0798 42.8436 24.0798C43.253 24.0798 43.5866 24.4133 43.5866 24.8227ZM46.3841 49.0682C46.3841 49.4776 46.0506 49.8112 45.6412 49.8112C45.2318 49.8112 44.8982 49.4776 44.8982 49.0682C44.8982 48.6588 45.2318 48.3252 45.6412 48.3252C46.0506 48.3252 46.3841 48.6588 46.3841 49.0682ZM47.0816 31.8659C47.2181 32.2829 47.347 32.6999 47.4607 33.1244C47.6275 33.7461 48.0445 34.2086 48.6434 34.4512C49.4698 34.7772 50.0536 35.5884 50.0536 36.5285C50.0536 37.2866 49.6745 37.9614 49.0907 38.3632C48.56 38.7347 48.2643 39.2805 48.2416 39.925C48.2264 40.3647 48.1961 40.7968 48.1582 41.2366C48.1051 41.79 48.2643 42.2904 48.6283 42.7149C48.8481 42.9727 48.9846 43.3139 48.9846 43.6854C48.9846 44.5117 48.3174 45.1789 47.491 45.1789C46.6647 45.1789 45.9975 44.5117 45.9975 43.6854C45.9975 43.1547 46.2704 42.6922 46.6874 42.4268C47.2257 42.0781 47.5441 41.555 47.5972 40.9181C47.6123 40.6983 47.6275 40.486 47.6427 40.2661C47.6806 39.508 47.3242 38.8408 46.6722 38.4542C46.0202 38.0675 45.5805 37.3473 45.5805 36.5285C45.5805 35.8992 45.8459 35.323 46.2628 34.9136C46.8087 34.3905 47.0058 33.6551 46.7935 32.9273C46.7329 32.715 46.6722 32.5103 46.604 32.298C46.4069 31.6839 45.9748 31.2442 45.3758 31.0319C44.7996 30.8272 44.3826 30.2738 44.3826 29.6218C44.3826 28.7954 45.0498 28.1282 45.8762 28.1282C46.7026 28.1282 47.3697 28.7954 47.3697 29.6218C47.3697 29.872 47.3091 30.0994 47.2029 30.3041C46.9452 30.7969 46.9073 31.32 47.0816 31.8507V31.8659ZM7.50649 26.1419C7.37002 25.7249 7.24114 25.3079 7.12742 24.8834C6.96063 24.2617 6.54365 23.7992 5.94471 23.5566C5.11833 23.2306 4.53456 22.4194 4.53456 21.4793C4.53456 20.7212 4.91364 20.0464 5.49741 19.6446C6.02811 19.2731 6.32378 18.7273 6.34653 18.0828C6.36169 17.6431 6.39202 17.211 6.42992 16.7712C6.483 16.2178 6.32378 15.7174 5.95988 15.2929C5.74001 15.0351 5.60355 14.6939 5.60355 14.3224C5.60355 13.4961 6.27071 12.8289 7.09709 12.8289C7.92347 12.8289 8.59064 13.4961 8.59064 14.3224C8.59064 14.8531 8.31771 15.3156 7.90073 15.581C7.36244 15.9297 7.04402 16.4528 6.99095 17.0897C6.97579 17.3095 6.96063 17.5218 6.94546 17.7417C6.90756 18.4998 7.26388 19.167 7.91589 19.5536C8.56789 19.9403 9.00762 20.6605 9.00762 21.4793C9.00762 22.1162 8.74227 22.6848 8.32529 23.0942C7.77942 23.6173 7.5823 24.3527 7.79459 25.0805C7.85524 25.2928 7.91589 25.4975 7.98412 25.7098C8.18124 26.3239 8.61338 26.7636 9.21232 26.9759C9.78851 27.1806 10.2055 27.734 10.2055 28.386C10.2055 29.2124 9.53832 29.8796 8.71194 29.8796C7.88556 29.8796 7.2184 29.2124 7.2184 28.386C7.2184 28.1358 7.27905 27.9084 7.38519 27.7037C7.64296 27.2109 7.68086 26.6878 7.50649 26.1571V26.1419ZM15.2775 40.7741C15.0728 40.4178 15.1941 39.9629 15.5504 39.7582C15.9067 39.5535 16.3616 39.6748 16.5663 40.0311C16.771 40.3874 16.6497 40.8423 16.2934 41.047C15.9371 41.2517 15.4822 41.1304 15.2775 40.7741ZM0.728677 21.1685C0.523978 20.8121 0.645282 20.3573 1.00161 20.1526C1.35794 19.9479 1.81282 20.0692 2.01752 20.4255C2.22222 20.7818 2.10092 21.2367 1.74459 21.4414C1.38826 21.6461 0.933376 21.5248 0.728677 21.1685ZM39.3107 17.2261C39.5154 17.5825 39.3941 18.0373 39.0377 18.242C38.6814 18.4467 38.2265 18.3254 38.0218 17.9691C37.8171 17.6128 37.9384 17.1579 38.2947 16.9532C38.6511 16.7485 39.106 16.8698 39.3107 17.2261ZM53.8519 36.8242C54.0566 37.1805 53.9353 37.6354 53.5789 37.8401C53.2226 38.0448 52.7677 37.9235 52.563 37.5671C52.3583 37.2108 52.4796 36.7559 52.836 36.5512C53.1923 36.3465 53.6472 36.4678 53.8519 36.8242ZM45.8534 21.5779C46.1794 21.866 46.5055 22.1692 46.8163 22.4801C47.2788 22.935 47.8625 23.1321 48.507 23.0335C49.3864 22.9046 50.2962 23.314 50.7662 24.1328C51.1453 24.7924 51.1529 25.5657 50.8496 26.2026C50.5767 26.7863 50.5918 27.408 50.8951 27.9766C51.0998 28.3633 51.2969 28.7575 51.4789 29.1593C51.7139 29.6673 52.1006 30.0236 52.6237 30.2056C52.9497 30.3193 53.2302 30.5467 53.4197 30.8651C53.8291 31.5778 53.5865 32.4876 52.8739 32.9046C52.1612 33.314 51.2439 33.0713 50.8345 32.3587C50.5691 31.9038 50.5767 31.3655 50.8041 30.9258C51.0998 30.3572 51.1074 29.7431 50.8345 29.1593C50.7435 28.9622 50.6449 28.7651 50.5464 28.5756C50.2052 27.9008 49.5608 27.499 48.8026 27.4914C48.0369 27.4838 47.3015 27.082 46.8921 26.3693C46.5737 25.8235 46.5206 25.1942 46.6798 24.6332C46.8921 23.9054 46.695 23.17 46.1491 22.6469C45.9899 22.4952 45.8307 22.3436 45.6715 22.1996C45.1939 21.7674 44.6025 21.6006 43.9732 21.7219C43.3667 21.8356 42.7299 21.5627 42.4115 21.0017C42.0021 20.289 42.2447 19.3793 42.9573 18.9623C43.67 18.5453 44.5798 18.7955 44.9967 19.5081C45.118 19.7204 45.1863 19.9554 45.1939 20.1829C45.2166 20.7439 45.444 21.214 45.861 21.5855L45.8534 21.5779ZM8.7271 36.4148C8.4011 36.1267 8.0751 35.8234 7.76426 35.5126C7.30179 35.0577 6.71802 34.8606 6.0736 34.9591C5.19415 35.088 4.28438 34.6786 3.81433 33.8598C3.43525 33.2002 3.42767 32.4269 3.72335 31.7901C3.99628 31.2063 3.98112 30.5846 3.67786 30.016C3.47316 29.6294 3.27604 29.2351 3.09409 28.8333C2.85906 28.3254 2.47241 27.969 1.94929 27.7871C1.62329 27.6734 1.34277 27.4459 1.15324 27.1275C0.74384 26.4148 0.986447 25.5051 1.6991 25.0881C2.41176 24.6787 3.32911 24.9213 3.73851 25.6339C4.00386 26.0888 3.99628 26.6271 3.76884 27.0668C3.47316 27.6355 3.46558 28.2495 3.73851 28.8333C3.82949 29.0304 3.92805 29.2276 4.02661 29.4247C4.36777 30.0994 5.01219 30.5012 5.77034 30.5088C6.53607 30.5164 7.27147 30.9182 7.68086 31.6309C7.99928 32.1767 8.05235 32.806 7.89314 33.367C7.68086 34.0948 7.87798 34.8302 8.42385 35.3534C8.58306 35.505 8.74227 35.6566 8.90148 35.8007C9.37911 36.2328 9.97046 36.3996 10.5997 36.2783C11.2062 36.1646 11.8431 36.4375 12.1615 36.9985C12.5709 37.7112 12.3283 38.6285 11.6156 39.0379C10.903 39.4473 9.99321 39.2047 9.57623 38.4921C9.45492 38.2798 9.38669 38.0448 9.37911 37.8173C9.35636 37.2563 9.12892 36.7863 8.71194 36.4148H8.7271ZM22.7679 45.2017C22.4116 44.997 22.2903 44.5421 22.495 44.1857C22.6997 43.8294 23.1546 43.7081 23.5109 43.9128C23.8673 44.1175 23.9886 44.5724 23.7839 44.9287C23.5792 45.285 23.1243 45.4064 22.7679 45.2017ZM0.372349 35.505C0.0160215 35.3003 -0.105282 34.8454 0.0994174 34.4891C0.304116 34.1327 0.759003 34.0114 1.11533 34.2161C1.47166 34.4208 1.59296 34.8757 1.38826 35.2321C1.18356 35.5884 0.728677 35.7097 0.372349 35.505ZM31.8202 12.7986C32.1765 13.0033 32.2978 13.4582 32.0931 13.8145C31.8884 14.1708 31.4335 14.2921 31.0772 14.0874C30.7209 13.8827 30.5996 13.4278 30.8043 13.0715C31.009 12.7152 31.4639 12.5939 31.8202 12.7986ZM54.2158 22.4952C54.5721 22.6999 54.6934 23.1548 54.4887 23.5111C54.284 23.8675 53.8291 23.9888 53.4728 23.7841C53.1165 23.5794 52.9952 23.1245 53.1999 22.7682C53.4046 22.4118 53.8595 22.2905 54.2158 22.4952ZM39.667 13.2914C40.0991 13.3748 40.5237 13.4809 40.9482 13.587C41.5699 13.7538 42.184 13.6249 42.692 13.2231C43.3895 12.6697 44.3826 12.5711 45.2014 13.0412C45.861 13.4202 46.2553 14.0874 46.3159 14.7925C46.369 15.4369 46.695 15.9676 47.2409 16.3088C47.6123 16.5438 47.9762 16.7864 48.3326 17.0366C48.7875 17.3626 49.2954 17.4687 49.8489 17.3702C50.1824 17.3095 50.5464 17.3626 50.8648 17.5445C51.5774 17.9539 51.82 18.8713 51.4106 19.584C51.0012 20.2966 50.0839 20.5392 49.3712 20.1298C48.9163 19.8645 48.651 19.3944 48.6283 18.9092C48.5979 18.2724 48.3023 17.7341 47.7716 17.3626C47.5896 17.2413 47.4076 17.12 47.2257 16.9987C46.5888 16.5893 45.8307 16.559 45.1711 16.9305C44.5039 17.3019 43.67 17.3247 42.9573 16.9153C42.4115 16.5969 42.0476 16.0889 41.9035 15.5127C41.7216 14.7773 41.1833 14.239 40.4479 14.0571C40.2356 14.004 40.0233 13.9585 39.811 13.913C39.1818 13.7766 38.5904 13.9282 38.0976 14.3452C37.6276 14.747 36.9452 14.8304 36.3842 14.5044C35.6716 14.095 35.429 13.1776 35.8384 12.465C36.2478 11.7523 37.1651 11.5097 37.8778 11.9191C38.09 12.0404 38.2644 12.2148 38.3857 12.4043C38.689 12.8744 39.1211 13.1701 39.667 13.2838V13.2914ZM14.9211 44.7089C14.489 44.6255 14.0644 44.5193 13.6399 44.4132C13.0182 44.2464 12.4041 44.3753 11.8961 44.7771C11.1987 45.3305 10.2055 45.4291 9.38669 44.959C8.7271 44.58 8.33287 43.9128 8.27222 43.2077C8.21915 42.5633 7.89314 42.0326 7.34728 41.6914C6.97579 41.4564 6.61188 41.2138 6.25555 40.9636C5.80067 40.6376 5.29271 40.5239 4.73926 40.63C4.40568 40.6907 4.04177 40.6376 3.72335 40.4557C3.01069 40.0463 2.76809 39.1289 3.17748 38.4163C3.58688 37.7036 4.50424 37.461 5.21689 37.8704C5.67178 38.1357 5.93713 38.6058 5.95988 39.091C5.9902 39.7279 6.28588 40.2661 6.81658 40.6376C6.99853 40.7589 7.18049 40.8802 7.36244 41.0015C7.99928 41.4109 8.75743 41.4413 9.41702 41.0698C10.0842 40.6983 10.9181 40.6755 11.6308 41.0849C12.1767 41.4034 12.5406 41.9189 12.6846 42.4875C12.8666 43.2229 13.4049 43.7612 14.1403 43.9431C14.3525 43.9962 14.5648 44.0417 14.7771 44.0872C15.4064 44.2236 15.9977 44.072 16.4905 43.655C16.9606 43.2532 17.6429 43.1698 18.2039 43.4958C18.9166 43.9052 19.1592 44.8226 18.7498 45.5352C18.3404 46.2479 17.423 46.4905 16.7104 46.0811C16.4981 45.9598 16.3237 45.793 16.2024 45.5959C15.8992 45.1258 15.467 44.8302 14.9211 44.7164V44.7089ZM30.1523 9.21254C30.5693 9.07608 30.9862 8.94719 31.4108 8.83347C32.0325 8.66668 32.4949 8.2497 32.7375 7.65076C33.0635 6.82439 33.8748 6.24062 34.8149 6.24062C35.573 6.24062 36.2478 6.61969 36.6496 7.20346C37.0211 7.73416 37.5669 8.02984 38.2113 8.05258C38.6511 8.06774 39.0832 8.09807 39.5229 8.13598C40.0764 8.18905 40.5768 8.02984 41.0013 7.66593C41.2591 7.44607 41.6003 7.3096 41.9717 7.3096C42.7981 7.3096 43.4653 7.97677 43.4653 8.80314C43.4653 9.62952 42.7981 10.2967 41.9717 10.2967C41.441 10.2967 40.9786 10.0238 40.7132 9.60678C40.3645 9.0685 39.8414 8.75007 39.2045 8.697C38.9847 8.68184 38.7724 8.66668 38.5525 8.65152C37.7944 8.61361 37.1272 8.96994 36.7405 9.62194C36.3539 10.2739 35.6337 10.7137 34.8149 10.7137C34.178 10.7137 33.6094 10.4483 33.2 10.0313C32.6769 9.48547 31.9415 9.28836 31.2137 9.50064C31.0014 9.56129 30.7967 9.62194 30.5844 9.69017C29.9703 9.88729 29.5306 10.3194 29.3183 10.9184C29.1136 11.4946 28.5602 11.9115 27.9082 11.9115C27.0818 11.9115 26.4146 11.2444 26.4146 10.418C26.4146 9.59161 27.0818 8.92445 27.9082 8.92445C28.1584 8.92445 28.3858 8.9851 28.5905 9.09124C29.0833 9.34901 29.6064 9.38692 30.1371 9.21254H30.1523Z" fill="white"></path></mask><g mask="url(#mask0_1_5161)"><path d="M54.6932 1.60156H-0.105469V56.4002H54.6932V1.60156Z" fill="url(#paint0_linear_1_5161)"></path></g><path fill-rule="evenodd" clip-rule="evenodd" d="M129.398 22.0349H122.738C120.916 22.0349 119.432 23.5114 119.432 25.341V40.2906H115.115V25.341C115.115 21.1361 118.525 17.7177 122.738 17.7177H129.398V22.0349ZM74.8395 35.3074L86.6035 20.9515V17.7177H68.5002V21.6096H80.9221L68.2354 37.0889L68.2594 40.2746C71.1964 39.5123 74.2778 39.111 77.4555 39.111C80.6332 39.111 83.7387 39.5203 86.6837 40.2826V36.2704C83.7147 35.5802 80.6252 35.2191 77.4555 35.2191C76.5728 35.2191 75.7062 35.2512 74.8395 35.2994V35.3074ZM110.854 17.7177H106.528V32.6673C106.536 34.4889 105.06 35.9734 103.238 35.9734H98.4958C96.6743 35.9734 95.1897 34.4969 95.1897 32.6673V17.7177H90.8725V32.6673C90.8725 36.8722 94.283 40.2906 98.4958 40.2906H103.238C107.443 40.2906 110.862 36.8802 110.862 32.6673V17.7177H110.854ZM142.398 40.5555C148.681 40.5555 153.977 35.2593 153.977 28.9761C153.977 22.6929 148.681 17.4448 142.398 17.4448C136.115 17.4448 130.738 22.7009 130.738 28.9761C130.738 35.2512 136.075 40.5555 142.398 40.5555ZM142.398 36.8802C138.338 36.8802 134.967 33.2933 134.967 28.9761C134.967 24.6589 138.346 21.112 142.398 21.112C146.45 21.112 149.748 24.699 149.748 28.9761C149.748 33.2531 146.37 36.8802 142.398 36.8802Z" fill="white"></path></g></g><defs><linearGradient id="paint0_linear_1_5161" x1="6.86188" y1="47.6816" x2="46.9829" y2="10.995" gradientUnits="userSpaceOnUse"><stop stop-color="#5548FE"></stop><stop offset="1" stop-color="#A057FF"></stop></linearGradient><clipPath id="clip0_1_5161"><rect width="153.978" height="57.9999" fill="white"></rect></clipPath><clipPath id="clip1_1_5161"><rect width="153.978" height="57.9999" fill="white"></rect></clipPath></defs></svg>